# Blender v2.76 (sub 0) OBJ File: ''
# www.blender.org
mtllib msl.mtl
o Plane.001_Plane.002
v -88.859322 -67.000000 -0.000003
v -44.859322 -67.000000 -0.000003
v -88.859322 67.000000 0.000003
v -44.859322 67.000000 0.000003
vn 0.000000 -0.000000 1.000000
usemtl None
s off
f 1/0/1 2/0/1 4/0/1 3/0/1
o Plane_Plane.001
v -101.000000 0.000000 65.000000
v -59.000000 0.000000 65.000000
v -101.000000 0.000000 -65.000000
v -59.000000 0.000000 -65.000000
vn 0.000000 1.000000 0.000000
usemtl None
s off
f 5/0/2 6/0/2 8/0/2 7/0/2
o Cone
v 115.000000 0.000002 -30.000000
v 115.000000 -17.633554 -24.270510
v 115.000000 -28.531694 -9.270509
v 115.000000 -28.531693 9.270511
v 115.000000 -17.633554 24.270512
v 115.000000 0.000005 30.000000
v 205.000000 -0.000002 0.000000
v 115.000000 17.633562 24.270508
v 115.000000 28.531696 9.270513
v 115.000000 28.531696 -9.270514
v 115.000000 17.633551 -24.270517
vn 0.302200 0.771200 -0.560300
vn 0.302200 -0.294600 -0.906600
vn 0.302200 0.953200 0.000000
vn 0.302200 0.771200 0.560300
vn 0.302200 0.294600 0.906600
vn 0.302200 -0.294600 0.906600
vn 0.302200 -0.771200 0.560300
vn 0.302200 -0.953200 0.000000
vn 0.302200 0.294600 -0.906600
vn 0.302200 -0.771200 -0.560300
vn -1.000000 0.000000 0.000000
usemtl None
s off
f 18/0/3 15/0/3 19/0/3
f 9/0/4 15/0/4 10/0/4
f 17/0/5 15/0/5 18/0/5
f 16/0/6 15/0/6 17/0/6
f 14/0/7 15/0/7 16/0/7
f 13/0/8 15/0/8 14/0/8
f 12/0/9 15/0/9 13/0/9
f 11/0/10 15/0/10 12/0/10
f 19/0/11 15/0/11 9/0/11
f 10/0/12 15/0/12 11/0/12
f 9/0/13 10/0/13 11/0/13 12/0/13 13/0/13 14/0/13 16/0/13 17/0/13 18/0/13 19/0/13
o Cylinder
v -115.000000 0.000005 -30.000000
v 115.000000 -0.000005 -30.000000
v -115.000000 -17.633551 -24.270510
v 115.000000 -17.633562 -24.270510
v -115.000000 -28.531691 -9.270509
v 115.000000 -28.531702 -9.270509
v -115.000000 -28.531689 9.270511
v 115.000000 -28.531700 9.270511
v -115.000000 -17.633551 24.270512
v 115.000000 -17.633562 24.270512
v -115.000000 0.000008 30.000000
v 115.000000 -0.000002 30.000000
v -115.000000 17.633566 24.270508
v 115.000000 17.633554 24.270508
v -115.000000 28.531700 9.270513
v 115.000000 28.531689 9.270513
v -115.000000 28.531700 -9.270514
v 115.000000 28.531689 -9.270514
v -115.000000 17.633554 -24.270517
v 115.000000 17.633543 -24.270517
vt 0.495972 0.978311
vt 0.419633 0.243123
vt 0.276977 0.334027
vt 0.772275 0.885285
vt 0.215652 0.490737
vt 0.939938 0.646039
vt 0.940172 0.636311
vt 0.241725 0.486549
vt 0.291375 0.640852
vt 0.940172 0.353751
vt 0.939938 0.353026
vt 0.267138 0.650748
vt 0.406319 0.745281
vt 0.772351 0.114135
vt 0.574786 0.753774
vt 0.498693 0.021894
vt 0.719145 0.666563
vt 0.224070 0.115222
vt 0.778978 0.509374
vt 0.055473 0.354026
vt 0.725996 0.349816
vt 0.054006 0.647001
vt 0.553793 0.296852
vt 0.655881 0.371023
vt 0.694875 0.491035
vt 0.655881 0.611047
vt 0.553793 0.685218
vt 0.427605 0.685218
vt 0.325517 0.611047
vt 0.286522 0.491035
vt 0.325517 0.371023
vt 0.427605 0.296852
vt 0.220634 0.886276
vt 0.588695 0.251577
vt 0.316318 0.602021
vn -0.000000 -0.309000 -0.951100
vn -0.000000 -0.809000 -0.587800
vn -0.000000 -1.000000 0.000000
vn -0.000000 -0.809000 0.587800
vn -0.000000 -0.309000 0.951100
vn 0.000000 0.309000 0.951100
vn 0.000000 0.809000 0.587800
vn 0.000000 1.000000 0.000000
vn 1.000000 0.000000 0.000000
vn 0.000000 0.309000 -0.951100
vn 0.000000 0.809000 -0.587800
vn -1.000000 -0.000000 0.000000
usemtl None_mslT.jpg
s off
f 20/1/14 21/2/14 23/3/14 22/4/14
f 22/4/15 23/3/15 25/5/15 24/6/15
f 24/7/16 25/8/16 27/9/16 26/10/16
f 26/11/17 27/12/17 29/13/17 28/14/17
f 28/14/18 29/13/18 31/15/18 30/16/18
f 30/16/19 31/15/19 33/17/19 32/18/19
f 32/18/20 33/17/20 35/19/20 34/20/20
f 34/20/21 35/19/21 37/21/21 36/22/21
f 23/23/22 21/24/22 39/25/22 37/26/22 35/27/22 33/28/22 31/29/22 29/30/22 27/31/22 25/32/22
f 38/33/23 39/34/23 21/2/23 20/1/23
f 36/22/24 37/21/24 39/34/24 38/33/24
f 20/35/25 22/35/25 24/35/25 26/35/25 28/35/25 30/35/25 32/35/25 34/35/25 36/35/25 38/35/25
